<svg width="46" height="45" viewBox="0 0 46 45" fill="none" xmlns="http://www.w3.org/2000/svg">
<path fill-rule="evenodd" clip-rule="evenodd" d="M20.1307 1.12271L22.9098 2.02574L25.6889 1.12271C29.5947 -0.146097 34.0413 -0.36967 35.9586 0.60665C38.5073 1.90437 39.4185 3.99317 39.4101 8.5184C39.404 11.5912 38.896 14.7196 37.9707 17.3776C37.6972 18.1632 37.5449 18.8064 37.6325 18.8064C37.7197 18.8064 39.5324 17.8987 41.6599 16.7892C43.7875 15.6798 45.5931 14.772 45.6722 14.772C45.7514 14.772 45.8137 17.8358 45.811 21.58C45.8056 29.244 45.46 31.4142 43.7158 34.7445C42.2245 37.5915 38.4217 41.3048 35.641 42.6294C32.1542 44.2902 30.5349 44.5266 22.7414 44.5141C12.7175 44.4983 10.1311 43.6925 5.528 39.1521C2.91331 36.5731 1.05689 33.2659 0.373071 29.9685C-0.0112828 28.115 -0.15343 14.772 0.211386 14.772C0.325918 14.772 2.13921 15.6798 4.2412 16.7892C6.34352 17.8987 8.12416 18.8064 8.19894 18.8064C8.27339 18.8064 8.0524 17.9531 7.70746 16.9099C6.7134 13.9023 6.31524 10.9279 6.4611 7.60226C6.63289 3.68757 7.50164 1.88051 9.7724 0.712891C11.1107 0.0246939 11.6433 -0.0499439 14.32 0.0764666C16.3697 0.173628 18.2518 0.512179 20.1307 1.12271ZM10.8187 3.5309C8.58093 5.41025 8.51592 10.393 10.6465 16.7892C11.8619 20.439 12.3837 21.2223 14.8495 23.0993L17.063 24.7847L17.4625 23.2943C17.7714 22.1411 18.4081 21.2751 20.2766 19.4647C21.6048 18.178 22.7852 17.1254 22.8997 17.1254C23.0142 17.1254 24.1939 18.1589 25.5215 19.4223C27.4281 21.2368 28.0209 22.0396 28.344 23.2456L28.7533 24.7722L31.0426 23.0499C32.9084 21.6463 33.4952 20.9651 34.2164 19.3648C35.5665 16.3696 36.3733 13.2195 36.598 10.0652C36.9699 4.84073 35.6575 2.66889 32.1282 2.66889C30.1061 2.66889 27.289 3.26362 27.289 3.6906C27.289 3.83886 27.742 4.05941 28.2958 4.18078C28.8493 4.30214 29.3946 4.55025 29.5072 4.73213C29.7143 5.06699 29.0389 7.03946 28.7169 7.03946C28.6209 7.03946 26.7823 6.37144 24.6312 5.55482C19.806 3.72321 15.7516 2.66889 13.5317 2.66889C12.2129 2.66889 11.6214 2.85682 10.8187 3.5309ZM2.77588 24.4377C2.95239 29.874 3.49877 31.9931 5.46534 34.8689C8.55263 39.3834 12.987 41.6554 18.7271 41.6638L21.4495 41.6679L21.1922 39.7754C19.9987 30.9973 16.4361 26.4959 6.3698 21.0472C4.77613 20.1845 3.27948 19.4788 3.04368 19.4788C2.70884 19.4788 2.65023 20.564 2.77588 24.4377ZM38.9082 21.3655C30.2452 26.2206 26.9551 29.8724 25.2503 36.525C24.8895 37.9334 24.5941 39.6866 24.5941 40.4209V41.756L28.122 41.5993C31.3326 41.4567 31.8716 41.3334 34.1117 40.2286C37.9885 38.3163 40.7531 35.2532 42.1871 31.2814C43.07 28.8352 43.5083 19.4788 42.7396 19.4788C42.4839 19.4788 40.7599 20.3277 38.9082 21.3655ZM21.4566 22.1865C20.1129 23.7532 19.5002 25.7217 19.8663 27.2961C20.1486 28.5094 22.6097 33.5991 22.9145 33.5991C23.021 33.5991 23.7698 32.2516 24.5786 30.6049C26.6836 26.3187 26.5624 24.5167 23.982 21.7481C23.5084 21.2398 23.0092 20.8236 22.8731 20.8236C22.737 20.8236 22.0993 21.4368 21.4566 22.1865Z" fill="white"/>
</svg>
