<svg width="222" height="37" viewBox="0 0 222 37" fill="none" xmlns="http://www.w3.org/2000/svg">
<path d="M3.43697 25.7119C3.19578 25.7119 2.99981 25.6441 2.84907 25.5087C2.7134 25.3732 2.63049 25.2077 2.60034 25.012L0.0226116 10.5406C0.00753721 10.5105 0 10.4804 0 10.4503C0 10.4202 0 10.3976 0 10.3826C0 10.2622 0.0452233 10.1568 0.13567 10.0665C0.226117 9.96115 0.339175 9.90847 0.474845 9.90847H2.84907C3.24101 9.90847 3.45959 10.0665 3.50481 10.3826L5.20068 19.9323L7.03223 13.9948C7.07745 13.8744 7.15282 13.7464 7.25835 13.611C7.36387 13.4755 7.53722 13.4078 7.77841 13.4078H9.20295C9.44414 13.4078 9.6175 13.4755 9.72302 13.611C9.82854 13.7464 9.89637 13.8744 9.92652 13.9948L11.7807 19.9098L13.4539 10.3826C13.4992 10.0665 13.7253 9.90847 14.1323 9.90847H16.5065C16.6422 9.90847 16.7552 9.96115 16.8457 10.0665C16.9361 10.1568 16.9814 10.2622 16.9814 10.3826C16.9814 10.3976 16.9814 10.4202 16.9814 10.4503C16.9814 10.4804 16.9738 10.5105 16.9587 10.5406L14.381 25.012C14.3509 25.2077 14.2604 25.3732 14.1097 25.5087C13.974 25.6441 13.7856 25.7119 13.5444 25.7119H11.7128C11.4717 25.7119 11.2832 25.6517 11.1476 25.5313C11.027 25.3958 10.944 25.2603 10.8988 25.1249L8.47937 18.1262L6.08254 25.1249C6.03731 25.2603 5.94687 25.3958 5.8112 25.5313C5.6906 25.6517 5.50217 25.7119 5.24591 25.7119H3.43697Z" fill="white"/>
<path d="M23.4312 25.7119C23.2653 25.7119 23.1297 25.6592 23.0242 25.5538C22.9186 25.4485 22.8659 25.313 22.8659 25.1475V10.4729C22.8659 10.3073 22.9186 10.1719 23.0242 10.0665C23.1297 9.96115 23.2653 9.90847 23.4312 9.90847H25.8958C26.0617 9.90847 26.1973 9.96115 26.3028 10.0665C26.4084 10.1719 26.4611 10.3073 26.4611 10.4729V16.1169H32.5889V10.4729C32.5889 10.3073 32.6416 10.1719 32.7472 10.0665C32.8527 9.96115 32.9884 9.90847 33.1542 9.90847H35.6189C35.7847 9.90847 35.9203 9.96115 36.0259 10.0665C36.1314 10.1719 36.1841 10.3073 36.1841 10.4729V25.1475C36.1841 25.313 36.1314 25.4485 36.0259 25.5538C35.9203 25.6592 35.7847 25.7119 35.6189 25.7119H33.1542C32.9884 25.7119 32.8527 25.6592 32.7472 25.5538C32.6416 25.4485 32.5889 25.313 32.5889 25.1475V19.3228H26.4611V25.1475C26.4611 25.313 26.4084 25.4485 26.3028 25.5538C26.1973 25.6592 26.0617 25.7119 25.8958 25.7119H23.4312Z" fill="white"/>
<path d="M43.4946 25.7119C43.3288 25.7119 43.1931 25.6592 43.0876 25.5538C42.9821 25.4485 42.9293 25.313 42.9293 25.1475V10.4729C42.9293 10.3073 42.9821 10.1719 43.0876 10.0665C43.1931 9.96115 43.3288 9.90847 43.4946 9.90847H46.0497C46.2155 9.90847 46.3512 9.96115 46.4567 10.0665C46.5623 10.1719 46.615 10.3073 46.615 10.4729V25.1475C46.615 25.313 46.5623 25.4485 46.4567 25.5538C46.3512 25.6592 46.2155 25.7119 46.0497 25.7119H43.4946Z" fill="white"/>
<path d="M57.3905 25.7119C57.2247 25.7119 57.089 25.6592 56.9835 25.5538C56.878 25.4485 56.8252 25.313 56.8252 25.1475V13.0466H52.7099C52.5592 13.0466 52.431 12.9939 52.3255 12.8885C52.22 12.7832 52.1672 12.6553 52.1672 12.5047V10.4729C52.1672 10.3073 52.22 10.1719 52.3255 10.0665C52.431 9.96115 52.5592 9.90847 52.7099 9.90847H64.5584C64.7242 9.90847 64.8599 9.96115 64.9654 10.0665C65.071 10.1719 65.1237 10.3073 65.1237 10.4729V12.5047C65.1237 12.6553 65.071 12.7832 64.9654 12.8885C64.8599 12.9939 64.7242 13.0466 64.5584 13.0466H60.4657V25.1475C60.4657 25.313 60.413 25.4485 60.3074 25.5538C60.2019 25.6592 60.0662 25.7119 59.9004 25.7119H57.3905Z" fill="white"/>
<path d="M71.2557 25.7119C71.0899 25.7119 70.9542 25.6592 70.8487 25.5538C70.7432 25.4485 70.6904 25.313 70.6904 25.1475V10.4729C70.6904 10.3073 70.7432 10.1719 70.8487 10.0665C70.9542 9.96115 71.0899 9.90847 71.2557 9.90847H81.4988C81.6646 9.90847 81.8003 9.96115 81.9058 10.0665C82.0113 10.1719 82.0641 10.3073 82.0641 10.4729V12.279C82.0641 12.4295 82.0113 12.5574 81.9058 12.6628C81.8003 12.7681 81.6646 12.8208 81.4988 12.8208H74.1726V16.3653H81.0013C81.1672 16.3653 81.3028 16.418 81.4084 16.5233C81.5139 16.6287 81.5666 16.7641 81.5666 16.9297V18.6003C81.5666 18.7508 81.5139 18.8788 81.4084 18.9841C81.3028 19.0895 81.1672 19.1422 81.0013 19.1422H74.1726V22.7995H81.6797C81.8455 22.7995 81.9812 22.8522 82.0867 22.9576C82.1922 23.0629 82.245 23.1984 82.245 23.3639V25.1475C82.245 25.313 82.1922 25.4485 82.0867 25.5538C81.9812 25.6592 81.8455 25.7119 81.6797 25.7119H71.2557Z" fill="white"/>
<path d="M112.37 22.5763C112.278 22.5763 112.207 22.5512 112.156 22.501C112.106 22.4425 112.081 22.3714 112.081 22.2878V14.0976C112.081 14.0056 112.106 13.9346 112.156 13.8844C112.207 13.8259 112.278 13.7966 112.37 13.7966H115.222C116.084 13.7966 116.779 13.9262 117.307 14.1854C117.834 14.4446 118.22 14.8293 118.463 15.3393C118.705 15.841 118.831 16.4598 118.839 17.1956C118.848 17.5719 118.852 17.9021 118.852 18.1864C118.852 18.4707 118.848 18.7968 118.839 19.1647C118.823 19.934 118.693 20.5737 118.45 21.0837C118.215 21.5854 117.839 21.9617 117.319 22.2125C116.809 22.455 116.13 22.5763 115.284 22.5763H112.37ZM113.312 21.5102H115.222C115.799 21.5102 116.26 21.4307 116.603 21.2719C116.947 21.113 117.194 20.858 117.344 20.5068C117.504 20.1556 117.587 19.6915 117.596 19.1146C117.612 18.8637 117.621 18.6463 117.621 18.4624C117.621 18.2701 117.621 18.0819 117.621 17.898C117.621 17.7056 117.612 17.4882 117.596 17.2458C117.579 16.4347 117.386 15.8368 117.018 15.4522C116.649 15.0592 116.03 14.8627 115.159 14.8627H113.312V21.5102Z" fill="white"/>
<path d="M122.915 22.5763C122.823 22.5763 122.752 22.5512 122.702 22.501C122.651 22.4425 122.626 22.3714 122.626 22.2878V14.0976C122.626 14.0056 122.651 13.9346 122.702 13.8844C122.752 13.8259 122.823 13.7966 122.915 13.7966H128.103C128.195 13.7966 128.267 13.8259 128.317 13.8844C128.367 13.9346 128.392 14.0056 128.392 14.0976V14.5742C128.392 14.6662 128.367 14.7373 128.317 14.7875C128.267 14.8376 128.195 14.8627 128.103 14.8627H123.832V17.6095H127.827C127.919 17.6095 127.99 17.6388 128.04 17.6973C128.091 17.7475 128.116 17.8185 128.116 17.9105V18.3746C128.116 18.4582 128.091 18.5293 128.04 18.5878C127.99 18.638 127.919 18.6631 127.827 18.6631H123.832V21.5102H128.204C128.296 21.5102 128.367 21.5353 128.417 21.5854C128.468 21.6356 128.493 21.7067 128.493 21.7986V22.2878C128.493 22.3714 128.468 22.4425 128.417 22.501C128.367 22.5512 128.296 22.5763 128.204 22.5763H122.915Z" fill="white"/>
<path d="M132.418 22.5763C132.326 22.5763 132.254 22.5512 132.204 22.501C132.154 22.4425 132.129 22.3714 132.129 22.2878V14.0976C132.129 14.0056 132.154 13.9346 132.204 13.8844C132.254 13.8259 132.326 13.7966 132.418 13.7966H132.996C133.096 13.7966 133.171 13.8217 133.222 13.8719C133.272 13.9137 133.301 13.9471 133.31 13.9722L137.48 20.3688V14.0976C137.48 14.0056 137.505 13.9346 137.556 13.8844C137.606 13.8259 137.677 13.7966 137.769 13.7966H138.372C138.464 13.7966 138.535 13.8259 138.586 13.8844C138.644 13.9346 138.674 14.0056 138.674 14.0976V22.2753C138.674 22.3589 138.644 22.4299 138.586 22.4885C138.535 22.547 138.468 22.5763 138.385 22.5763H137.782C137.69 22.5763 137.618 22.5512 137.568 22.501C137.526 22.4508 137.497 22.4174 137.48 22.4007L133.322 16.0668V22.2878C133.322 22.3714 133.293 22.4425 133.234 22.501C133.184 22.5512 133.113 22.5763 133.021 22.5763H132.418Z" fill="white"/>
<path d="M144.946 22.5763C144.862 22.5763 144.791 22.5512 144.733 22.501C144.682 22.4425 144.657 22.3714 144.657 22.2878V14.9129H142.245C142.162 14.9129 142.09 14.8878 142.032 14.8376C141.982 14.7791 141.956 14.708 141.956 14.6244V14.0976C141.956 14.0056 141.982 13.9346 142.032 13.8844C142.09 13.8259 142.162 13.7966 142.245 13.7966H148.3C148.392 13.7966 148.464 13.8259 148.514 13.8844C148.572 13.9346 148.602 14.0056 148.602 14.0976V14.6244C148.602 14.708 148.572 14.7791 148.514 14.8376C148.464 14.8878 148.392 14.9129 148.3 14.9129H145.901V22.2878C145.901 22.3714 145.872 22.4425 145.813 22.501C145.763 22.5512 145.692 22.5763 145.599 22.5763H144.946Z" fill="white"/>
<path d="M150.372 22.5763C150.305 22.5763 150.246 22.5512 150.196 22.501C150.145 22.4508 150.12 22.3923 150.12 22.3254C150.12 22.2836 150.125 22.2376 150.133 22.1875L153.248 14.0725C153.282 13.9889 153.328 13.922 153.386 13.8719C153.445 13.8217 153.533 13.7966 153.65 13.7966H154.504C154.613 13.7966 154.697 13.8217 154.756 13.8719C154.823 13.922 154.873 13.9889 154.906 14.0725L158.009 22.1875C158.026 22.2376 158.034 22.2836 158.034 22.3254C158.034 22.3923 158.009 22.4508 157.959 22.501C157.909 22.5512 157.85 22.5763 157.783 22.5763H157.142C157.042 22.5763 156.967 22.5512 156.916 22.501C156.875 22.4508 156.845 22.4049 156.828 22.3631L156.138 20.582H152.017L151.326 22.3631C151.318 22.4049 151.289 22.4508 151.238 22.501C151.188 22.5512 151.113 22.5763 151.012 22.5763H150.372ZM152.381 19.5034H155.773L154.077 15.0508L152.381 19.5034Z" fill="white"/>
<path d="M161.551 22.5763C161.459 22.5763 161.387 22.5512 161.337 22.501C161.287 22.4425 161.262 22.3714 161.262 22.2878V14.0851C161.262 14.0015 161.287 13.9346 161.337 13.8844C161.387 13.8259 161.459 13.7966 161.551 13.7966H162.217C162.3 13.7966 162.367 13.8259 162.418 13.8844C162.468 13.9346 162.493 14.0015 162.493 14.0851V21.4851H166.676C166.768 21.4851 166.839 21.5144 166.89 21.5729C166.94 21.6231 166.965 21.6941 166.965 21.7861V22.2878C166.965 22.3714 166.94 22.4425 166.89 22.501C166.839 22.5512 166.768 22.5763 166.676 22.5763H161.551Z" fill="white"/>
<path d="M178.022 22.7017C177.252 22.7017 176.611 22.5595 176.1 22.2753C175.598 21.991 175.217 21.5938 174.957 21.0837C174.698 20.5737 174.555 19.98 174.53 19.3027C174.522 18.9599 174.518 18.592 174.518 18.199C174.518 17.806 174.522 17.4297 174.53 17.0702C174.555 16.3929 174.698 15.7992 174.957 15.2892C175.217 14.7791 175.598 14.3819 176.1 14.0976C176.611 13.8133 177.252 13.6712 178.022 13.6712C178.6 13.6712 179.107 13.7506 179.542 13.9095C179.978 14.0684 180.338 14.2816 180.623 14.5492C180.916 14.8167 181.138 15.1177 181.289 15.4522C181.439 15.7783 181.523 16.1169 181.54 16.4681C181.548 16.5434 181.523 16.6061 181.464 16.6563C181.414 16.7064 181.351 16.7315 181.276 16.7315H180.585C180.51 16.7315 180.443 16.7106 180.384 16.6688C180.334 16.627 180.296 16.5518 180.271 16.4431C180.129 15.7908 179.861 15.3435 179.467 15.101C179.082 14.8585 178.596 14.7373 178.01 14.7373C177.34 14.7373 176.808 14.9296 176.415 15.3142C176.021 15.6905 175.807 16.2967 175.774 17.1329C175.749 17.8185 175.749 18.5209 175.774 19.24C175.807 20.0762 176.021 20.6866 176.415 21.0712C176.808 21.4475 177.34 21.6356 178.01 21.6356C178.596 21.6356 179.082 21.5144 179.467 21.2719C179.861 21.0294 180.129 20.582 180.271 19.9298C180.296 19.8211 180.334 19.7459 180.384 19.7041C180.443 19.6623 180.51 19.6414 180.585 19.6414H181.276C181.351 19.6414 181.414 19.6664 181.464 19.7166C181.523 19.7668 181.548 19.8295 181.54 19.9047C181.523 20.2559 181.439 20.5988 181.289 20.9332C181.138 21.2593 180.916 21.5562 180.623 21.8237C180.338 22.0913 179.978 22.3045 179.542 22.4634C179.107 22.6223 178.6 22.7017 178.022 22.7017Z" fill="white"/>
<path d="M185.397 22.5763C185.304 22.5763 185.233 22.5512 185.183 22.501C185.133 22.4425 185.108 22.3714 185.108 22.2878V14.0851C185.108 14.0015 185.133 13.9346 185.183 13.8844C185.233 13.8259 185.304 13.7966 185.397 13.7966H186.062C186.146 13.7966 186.213 13.8259 186.263 13.8844C186.314 13.9346 186.339 14.0015 186.339 14.0851V21.4851H190.522C190.614 21.4851 190.685 21.5144 190.735 21.5729C190.786 21.6231 190.811 21.6941 190.811 21.7861V22.2878C190.811 22.3714 190.786 22.4425 190.735 22.501C190.685 22.5512 190.614 22.5763 190.522 22.5763H185.397Z" fill="white"/>
<path d="M194.359 22.5763C194.267 22.5763 194.196 22.5512 194.146 22.501C194.095 22.4425 194.07 22.3714 194.07 22.2878V14.0851C194.07 14.0015 194.095 13.9346 194.146 13.8844C194.196 13.8259 194.267 13.7966 194.359 13.7966H195.025C195.109 13.7966 195.176 13.8259 195.226 13.8844C195.285 13.9346 195.314 14.0015 195.314 14.0851V22.2878C195.314 22.3714 195.285 22.4425 195.226 22.501C195.176 22.5512 195.109 22.5763 195.025 22.5763H194.359Z" fill="white"/>
<path d="M199.679 22.5763C199.586 22.5763 199.515 22.5512 199.465 22.501C199.415 22.4425 199.39 22.3714 199.39 22.2878V14.0976C199.39 14.0056 199.415 13.9346 199.465 13.8844C199.515 13.8259 199.586 13.7966 199.679 13.7966H200.256C200.357 13.7966 200.432 13.8217 200.483 13.8719C200.533 13.9137 200.562 13.9471 200.57 13.9722L204.741 20.3688V14.0976C204.741 14.0056 204.766 13.9346 204.816 13.8844C204.867 13.8259 204.938 13.7966 205.03 13.7966H205.633C205.725 13.7966 205.796 13.8259 205.846 13.8844C205.905 13.9346 205.934 14.0056 205.934 14.0976V22.2753C205.934 22.3589 205.905 22.4299 205.846 22.4885C205.796 22.547 205.729 22.5763 205.645 22.5763H205.043C204.95 22.5763 204.879 22.5512 204.829 22.501C204.787 22.4508 204.758 22.4174 204.741 22.4007L200.583 16.0668V22.2878C200.583 22.3714 200.554 22.4425 200.495 22.501C200.445 22.5512 200.374 22.5763 200.282 22.5763H199.679Z" fill="white"/>
<path d="M210.285 22.5763C210.193 22.5763 210.122 22.5512 210.072 22.501C210.021 22.4425 209.996 22.3714 209.996 22.2878V14.0851C209.996 14.0015 210.021 13.9346 210.072 13.8844C210.122 13.8259 210.193 13.7966 210.285 13.7966H210.951C211.035 13.7966 211.102 13.8259 211.152 13.8844C211.211 13.9346 211.24 14.0015 211.24 14.0851V22.2878C211.24 22.3714 211.211 22.4425 211.152 22.501C211.102 22.5512 211.035 22.5763 210.951 22.5763H210.285Z" fill="white"/>
<path d="M218.481 22.7017C217.711 22.7017 217.07 22.5595 216.559 22.2753C216.057 21.991 215.676 21.5938 215.416 21.0837C215.156 20.5737 215.014 19.98 214.989 19.3027C214.98 18.9599 214.976 18.592 214.976 18.199C214.976 17.806 214.98 17.4297 214.989 17.0702C215.014 16.3929 215.156 15.7992 215.416 15.2892C215.676 14.7791 216.057 14.3819 216.559 14.0976C217.07 13.8133 217.711 13.6712 218.481 13.6712C219.059 13.6712 219.566 13.7506 220.001 13.9095C220.437 14.0684 220.797 14.2816 221.081 14.5492C221.375 14.8167 221.596 15.1177 221.747 15.4522C221.898 15.7783 221.982 16.1169 221.998 16.4681C222.007 16.5434 221.982 16.6061 221.923 16.6563C221.873 16.7064 221.81 16.7315 221.735 16.7315H221.044C220.968 16.7315 220.901 16.7106 220.843 16.6688C220.792 16.627 220.755 16.5518 220.73 16.4431C220.587 15.7908 220.319 15.3435 219.926 15.101C219.54 14.8585 219.055 14.7373 218.468 14.7373C217.799 14.7373 217.267 14.9296 216.873 15.3142C216.48 15.6905 216.266 16.2967 216.232 17.1329C216.207 17.8185 216.207 18.5209 216.232 19.24C216.266 20.0762 216.48 20.6866 216.873 21.0712C217.267 21.4475 217.799 21.6356 218.468 21.6356C219.055 21.6356 219.54 21.5144 219.926 21.2719C220.319 21.0294 220.587 20.582 220.73 19.9298C220.755 19.8211 220.792 19.7459 220.843 19.7041C220.901 19.6623 220.968 19.6414 221.044 19.6414H221.735C221.81 19.6414 221.873 19.6664 221.923 19.7166C221.982 19.7668 222.007 19.8295 221.998 19.9047C221.982 20.2559 221.898 20.5988 221.747 20.9332C221.596 21.2593 221.375 21.5562 221.081 21.8237C220.797 22.0913 220.437 22.3045 220.001 22.4634C219.566 22.6223 219.059 22.7017 218.481 22.7017Z" fill="white"/>
<path d="M99.0542 8.22367e-08C99.4011 9.7376e-08 99.6823 0.280771 99.6823 0.627119V36.3729C99.6823 36.7192 99.4011 37 99.0542 37H97.1699C96.823 37 96.5418 36.7192 96.5418 36.3729V0.62712C96.5418 0.280771 96.823 -1.51394e-08 97.1699 0L99.0542 8.22367e-08Z" fill="white"/>
</svg>
